<svg width="800" height="600" xmlns="http://www.w3.org/2000/svg">
 <g id="Layer_1">
  <title>Layer 1</title>
  <path id="svg_1" d="m164.6349,79.22441c-15.67443,2.6549 -20.88034,14.73014 -21.08348,21.63463c8.61668,0.57356 14.01628,-3.90631 16.21297,-6.52645c3.59501,-3.71947 4.46424,-8.95541 4.8705,-15.10817zm1.92742,23.85067c-11.33302,0 -17.66326,4.25827 -20.77641,4.30607c-3.58556,-0.25637 -14.01628,-4.11488 -20.10087,-4.17571c-21.30551,0.58225 -27.39954,21.87796 -27.135,31.03324c1.73373,35.04384 24.98555,44.09484 28.78369,44.94215c3.05174,0.55184 13.32657,-4.32345 20.88034,-4.0975c8.25293,0.79082 14.02573,3.93238 17.33257,3.71512c4.19969,-0.2694 17.87112,-10.42842 21.99522,-26.10147c-8.3049,-6.46128 -13.43522,-12.32292 -13.89346,-17.87605c-0.21731,-2.51586 3.89735,-16.72892 10.44962,-20.72214c0.94481,-4.91005 -8.78675,-11.14103 -16.42083,-11.00198c-0.37792,-0.01304 -0.7464,-0.02173 -1.11488,-0.02173z" stroke="#000" fill="#fff"/>
 </g>
</svg>