<svg width="800" height="600" xmlns="http://www.w3.org/2000/svg">
 <g id="Layer_1">
  <title>Layer 1</title>
  <path id="svg_1" d="m272.30313,149.3171c-10.77453,0 -19.56181,7.97695 -19.56181,17.75337s8.78728,17.75337 19.56181,17.75337c10.77453,0 19.56181,-7.97695 19.56181,-17.75337s-8.78728,-17.75337 -19.56181,-17.75337zm49.61747,17.66925c-1.38097,-6.65294 -3.99694,-11.16261 -6.46322,-14.6116c0.18712,0.47181 0.33682,0.94729 0.51646,1.4191c-8.75734,-23.24324 -43.80169,-35.84323 -70.87087,-19.86007c-0.20958,0.98752 -0.2732,1.96772 -0.2732,2.94061c0,-0.18653 -0.02245,-0.35843 -0.01497,-0.54862c-6.5231,-0.4901 -14.42342,7.53805 -21.44801,22.2484c-3.56656,8.32806 -4.85771,17.44614 -1.54938,28.13693c1.93111,6.23965 4.96998,12.64022 9.35239,17.60707c12.99006,14.72864 32.88869,20.73787 44.47533,17.68388c0.01497,0.00366 0.03368,0.01097 0.05239,0.01463c22.33871,-0.45718 39.27332,-15.46379 45.37727,-34.99835c2.19682,-7.05161 2.33903,-12.8231 0.84579,-20.03198zm-87.91775,34.94349c-3.59276,-4.06711 -6.56801,-9.69596 -8.6039,-16.28307c-2.74322,-8.85108 -2.29038,-17.00725 1.41839,-25.65717c3.76491,-7.87454 7.44,-13.04986 10.60237,-16.16237c0.56137,2.71384 1.94982,5.95436 4.16535,9.68864c0.81586,1.38618 1.71779,2.56389 2.58978,3.70136c0.6699,0.86682 1.33231,1.73364 1.91988,2.6663c0.46406,0.73881 0.89445,1.62758 1.32483,2.69556c-0.89445,10.07268 3.33827,18.79209 11.78125,24.42826l-9.52829,8.22931l-0.75598,0.62543c-0.77843,0.62543 -1.67288,1.36424 -2.43634,2.15425c-5.08974,5.28139 -0.93561,10.3543 1.07034,12.79384l0.25449,0.3182c0.88696,1.08627 1.91988,2.26763 3.0501,3.43071c-5.92431,-2.80894 -11.86732,-6.97846 -16.85227,-12.62925zm83.49791,-15.98315c-5.98793,19.13589 -22.21895,31.82001 -41.42898,32.40155c-9.3,-2.13231 -16.32459,-6.5103 -20.90535,-13.00963c0.01497,-0.01463 0.03742,-0.02926 0.05614,-0.04755l18.5027,-14.03006c8.3307,-0.45353 14.42342,-3.24784 18.13968,-8.33172c4.57328,-5.16435 6.70648,-11.06385 6.33598,-17.77897c6.80004,1.37887 12.68318,3.3027 18.16962,6.88702l0.43412,0.28528l0.50149,0.15727c0.58382,0.17922 1.1639,0.27797 1.71779,0.29626c0.40793,4.53527 -0.07859,8.53288 -1.52318,13.17056zm0.95433,-16.94507c-7.30153,-4.77666 -15.20185,-6.8285 -24.67775,-8.35732c1.98724,8.62432 -0.31437,14.89323 -4.9625,20.15999c-3.30085,4.51698 -8.91453,6.66391 -16.44435,6.85776l-19.53561,14.82008c-1.86,1.49591 -2.21179,2.99547 -1.05537,4.49503c3.17734,4.67059 7.2192,8.05375 11.68394,10.5262c-0.04865,0 -0.0973,0.00731 -0.14596,0.01097c-0.00374,-0.00366 -0.01497,-0.00731 -0.02245,-0.01463c-0.07485,0.01097 -0.15344,0.01463 -0.23203,0.01829c-0.2994,0.00366 -0.59879,-0.00366 -0.89445,-0.03657c-0.58382,-0.07681 -1.17513,-0.23408 -1.71779,-0.43158c-3.36072,-1.21794 -7.07324,-4.9449 -9.71916,-8.18908c-2.17437,-2.66995 -4.5134,-5.24116 -1.53815,-8.32075c0.96555,-0.99849 2.17811,-1.87994 2.9528,-2.55292l9.43473,-8.15251c0.6437,-0.50107 1.30986,-1.01312 2.00221,-1.54711c0.19835,-0.15361 0.40044,-0.30723 0.60628,-0.4645c2.11074,-1.6166 1.80761,-1.17039 -0.40419,-2.3481c-9.053,-4.82786 -13.76101,-13.2181 -12.55219,-23.36759c-0.55763,-1.49956 -1.18636,-2.89672 -1.93859,-4.111c-1.35851,-2.19448 -3.12121,-4.03053 -4.46849,-6.30182c-3.36821,-5.69103 -6.91231,-14.27146 0.04865,-13.46681c-0.01871,-0.19385 -0.00748,-0.40232 -0.01871,-0.59983c0.35179,7.3186 5.71099,13.98252 6.51936,17.87772c0.29191,1.39715 1.10028,2.57852 2.29038,1.02409c9.49835,-12.41712 22.71296,-11.16626 31.16716,-4.7986c1.65791,1.24354 2.55984,2.76139 4.05682,4.05979c0.57634,0.50473 1.22753,0.94729 2.00221,1.28377c2.78064,1.21428 6.76262,1.14113 9.75658,1.58734c5.13091,0.76075 10.13083,1.69707 14.86129,2.96987c0.93561,0.10972 1.5868,-0.01463 1.94982,-0.3694c0.78966,-0.76075 -0.00748,-3.24418 -0.45284,-4.61939c1.03666,2.94427 2.00596,5.88487 2.89292,8.8328c0.67738,2.29689 0.51646,4.15123 -1.44459,3.5258z" stroke="#000" fill="#fff"/>
 </g>
</svg>